<?xml version="1.0" standalone="no"?><!DOCTYPE svg PUBLIC "-//W3C//DTD SVG 1.1//EN" "http://www.w3.org/Graphics/SVG/1.1/DTD/svg11.dtd"><svg height="369" node-id="1" sillyvg="true" template-height="369" template-width="850" version="1.1" viewBox="0 0 850 369" width="850" xmlns="http://www.w3.org/2000/svg" xmlns:xlink="http://www.w3.org/1999/xlink"><defs node-id="11"><linearGradient gradientUnits="objectBoundingBox" id="SVGID_1_" node-id="6" spreadMethod="pad" x1="413.5854" x2="413.5854" y1="314.0088" y2="95.6006"><stop offset="0" stop-color="#478ccb"></stop><stop offset="1" stop-color="#6aabde"></stop></linearGradient></defs><g node-id="31"><path d="M 455.70 336.00 L 457.20 337.90 L 458.10 339.90 L 458.30 342.30 L 458.10 344.60 L 457.20 346.70 L 455.70 348.60 L 453.90 350.10 L 451.80 350.90 L 449.40 351.20 L 447.10 350.90 L 445.00 350.10 L 443.10 348.70 L 441.60 346.70 L 440.80 344.60 L 440.50 342.30 L 440.80 339.90 L 441.60 337.80 L 443.10 336.00 L 445.00 334.50 L 447.10 333.60 L 449.40 333.30 L 451.80 333.60 L 453.80 334.50 L 455.70 336.00 Z M 452.90 338.80 L 450.70 337.50 L 449.40 337.40 L 447.00 338.00 L 445.90 338.80 L 444.70 341.00 L 444.50 342.30 L 445.10 344.70 L 445.90 345.80 L 447.00 346.60 L 449.40 347.20 L 450.70 347.00 L 452.90 345.80 L 453.70 344.70 L 454.40 342.30 L 453.70 339.80 L 452.90 338.80 Z M 206.30 334.50 L 207.30 335.70 L 207.10 337.20 L 205.90 338.20 L 204.40 338.00 L 198.60 334.60 L 198.20 333.10 L 198.50 332.40 L 199.00 331.80 L 200.40 331.40 L 206.30 334.50 Z M 330.30 347.10 L 330.80 346.50 L 332.20 345.90 L 333.60 346.60 L 337.00 355.40 L 336.30 356.80 L 335.70 357.20 L 334.90 357.30 L 333.50 356.70 L 330.30 348.70 L 330.30 347.10 Z M 324.80 344.60 L 325.50 344.80 L 326.40 346.00 L 326.20 347.60 L 325.70 348.20 L 316.80 354.90 L 315.30 355.30 L 314.60 355.00 L 313.70 353.80 L 313.90 352.30 L 314.40 351.70 L 323.30 345.00 L 324.80 344.60 Z M 323.40 337.20 L 324.50 338.30 L 324.30 339.80 L 323.20 340.80 L 321.70 340.70 L 314.00 337.00 L 313.00 335.90 L 313.10 334.40 L 313.60 333.70 L 315.00 333.20 L 323.40 337.20 Z M 342.70 335.60 L 344.20 335.60 L 345.30 336.60 L 345.40 338.20 L 344.30 339.30 L 336.40 342.80 L 335.00 342.30 L 334.50 341.60 L 334.30 340.90 L 334.90 339.40 L 342.70 335.60 Z M 329.40 326.20 L 330.80 326.70 L 331.40 328.20 L 331.30 334.50 L 330.20 335.60 L 329.40 335.70 L 328.00 335.10 L 327.40 333.70 L 327.50 327.40 L 328.60 326.30 L 329.40 326.20 Z M 204.60 320.40 L 205.30 320.60 L 206.30 321.80 L 206.20 323.30 L 201.90 327.20 L 200.40 327.70 L 199.60 327.50 L 198.60 326.30 L 198.80 324.80 L 203.10 320.80 L 204.60 320.40 Z M 372.60 286.50 L 373.00 287.10 L 373.10 288.70 L 372.00 289.80 L 371.30 290.00 L 321.00 292.20 L 319.50 291.70 L 319.00 291.00 L 319.00 289.50 L 320.00 288.30 L 320.70 288.20 L 371.20 286.00 L 372.60 286.50 Z M 824.90 341.80 L 825.60 342.10 L 826.20 343.50 L 825.80 345.00 L 824.40 345.60 L 812.10 341.70 L 811.40 341.40 L 810.70 340.00 L 811.20 338.50 L 812.60 337.90 L 824.90 341.80 Z M 592.10 347.30 L 592.70 346.80 L 594.20 346.80 L 598.70 350.90 L 599.30 352.30 L 598.70 353.70 L 598.00 354.10 L 596.50 354.20 L 592.10 350.10 L 591.50 348.70 L 592.10 347.30 Z M 584.10 345.90 L 585.50 346.40 L 585.90 347.10 L 585.90 348.60 L 581.00 353.50 L 579.50 353.50 L 578.80 353.00 L 578.40 352.40 L 578.40 350.80 L 582.60 346.40 L 584.10 345.90 Z M 581.30 333.50 L 584.20 336.40 L 584.70 337.80 L 584.50 338.60 L 583.40 339.70 L 581.90 339.60 L 581.20 339.20 L 578.30 336.20 L 577.80 334.80 L 578.00 334.10 L 579.10 333.00 L 580.60 333.00 L 581.30 333.50 Z M 594.30 334.80 L 595.70 334.20 L 597.10 334.80 L 597.70 336.20 L 597.20 337.60 L 593.70 340.90 L 592.10 340.90 L 591.50 340.50 L 591.00 339.90 L 591.00 338.30 L 594.30 334.80 Z M 653.40 337.30 L 654.90 337.00 L 656.10 337.90 L 656.40 339.40 L 655.40 340.70 L 649.30 344.10 L 647.90 343.80 L 647.30 343.20 L 647.10 342.40 L 647.40 341.00 L 653.40 337.30 Z M 662.10 337.90 L 663.50 337.50 L 664.90 338.20 L 668.30 342.40 L 668.70 343.10 L 668.60 344.60 L 667.40 345.60 L 666.60 345.70 L 665.30 344.90 L 661.40 340.00 L 661.60 338.50 L 662.10 337.90 Z M 669.60 327.80 L 669.90 328.50 L 669.60 330.00 L 664.80 333.50 L 663.30 333.80 L 662.00 333.00 L 661.70 332.30 L 662.00 330.80 L 666.80 327.20 L 668.30 326.90 L 669.60 327.80 Z M 651.10 324.10 L 651.40 323.30 L 652.70 322.60 L 654.20 323.00 L 658.00 329.40 L 657.60 330.90 L 657.10 331.40 L 656.30 331.60 L 654.80 331.20 L 651.30 325.60 L 651.10 324.10 Z M 554.90 290.60 L 555.30 291.30 L 555.10 292.80 L 554.00 293.80 L 553.20 293.90 L 507.00 291.10 L 458.30 289.60 L 456.90 289.00 L 456.50 288.30 L 456.50 286.80 L 457.60 285.70 L 458.40 285.60 L 507.10 287.10 L 553.50 289.90 L 554.90 290.60 Z M 768.00 325.20 L 769.50 325.00 L 787.40 330.00 L 804.70 335.30 L 805.40 335.60 L 806.10 337.00 L 805.70 338.40 L 804.30 339.10 L 803.60 339.10 L 786.30 333.80 L 768.50 328.90 L 767.80 328.50 L 767.00 327.20 L 767.40 325.70 L 768.00 325.20 Z M 757.00 322.40 L 757.20 323.10 L 756.90 324.60 L 755.50 325.40 L 754.80 325.40 L 733.30 320.20 L 711.20 315.40 L 688.40 311.00 L 664.90 306.90 L 640.60 303.20 L 615.60 300.00 L 589.80 297.10 L 588.40 296.40 L 588.00 295.70 L 588.20 294.20 L 589.40 293.20 L 590.20 293.10 L 616.10 296.00 L 641.20 299.30 L 665.50 302.90 L 689.20 307.00 L 712.00 311.50 L 734.20 316.30 L 755.80 321.50 L 757.00 322.40 Z M 751.20 279.20 L 751.90 279.40 L 752.80 280.70 L 752.60 282.20 L 747.10 286.20 L 745.60 286.00 L 745.00 285.40 L 744.70 284.70 L 744.90 283.20 L 749.70 279.60 L 751.20 279.20 Z M 754.90 281.10 L 755.60 280.70 L 757.10 280.90 L 761.00 285.30 L 761.50 286.80 L 760.70 288.20 L 760.00 288.50 L 758.50 288.40 L 754.60 283.90 L 754.20 282.50 L 754.90 281.10 Z M 684.00 264.70 L 684.50 265.40 L 684.50 266.90 L 683.40 268.00 L 673.70 268.20 L 673.60 277.80 L 672.50 278.90 L 671.00 278.90 L 669.90 277.80 L 669.70 277.10 L 669.70 268.20 L 660.10 268.00 L 659.00 266.90 L 659.00 265.40 L 659.40 264.70 L 660.80 264.20 L 669.70 264.20 L 669.90 254.50 L 671.00 253.40 L 671.70 253.30 L 672.50 253.40 L 673.60 254.50 L 673.70 264.20 L 682.60 264.20 L 684.00 264.70 Z M 757.70 276.00 L 759.00 275.10 L 763.30 274.10 L 764.60 274.80 L 765.00 276.30 L 764.20 277.70 L 763.50 278.00 L 759.20 279.00 L 757.80 278.20 L 757.50 277.50 L 757.70 276.00 Z M 754.00 267.80 L 754.80 266.50 L 756.30 266.20 L 757.60 267.00 L 757.90 268.50 L 756.60 274.60 L 755.40 275.50 L 754.60 275.50 L 753.90 275.20 L 753.00 273.90 L 754.00 267.80 Z M 745.80 270.00 L 752.20 275.10 L 752.40 276.60 L 751.40 277.80 L 749.90 278.00 L 749.20 277.60 L 742.90 272.50 L 742.70 271.00 L 743.60 269.80 L 745.10 269.60 L 745.80 270.00 Z M 736.50 217.80 L 738.40 220.10 L 739.70 222.60 L 740.50 225.20 L 740.80 228.10 L 740.50 231.10 L 739.70 233.80 L 738.40 236.30 L 736.50 238.60 L 734.20 240.50 L 731.70 241.80 L 729.10 242.60 L 726.20 242.90 L 723.20 242.60 L 720.60 241.80 L 718.10 240.50 L 715.80 238.60 L 713.80 236.30 L 712.50 233.80 L 711.70 231.10 L 711.40 228.10 L 711.70 225.20 L 712.50 222.60 L 713.80 220.10 L 715.80 217.80 L 718.10 215.90 L 720.60 214.60 L 723.20 213.80 L 726.20 213.50 L 729.10 213.80 L 731.70 214.60 L 734.20 215.90 L 736.50 217.80 Z M 733.60 220.60 L 732.00 219.30 L 730.20 218.30 L 728.30 217.70 L 726.20 217.50 L 724.00 217.70 L 722.10 218.30 L 720.30 219.30 L 718.50 220.70 L 717.20 222.30 L 716.20 224.10 L 715.60 226.00 L 715.40 228.20 L 715.60 230.30 L 716.20 232.30 L 717.20 234.10 L 718.50 235.70 L 720.30 237.10 L 722.10 238.10 L 724.00 238.70 L 726.20 238.90 L 728.30 238.70 L 730.20 238.10 L 732.00 237.10 L 733.60 235.80 L 735.00 234.10 L 736.00 232.30 L 736.60 230.30 L 736.80 228.20 L 736.60 226.00 L 736.00 224.10 L 735.00 222.30 L 733.60 220.60 Z M 685.50 181.50 L 686.00 182.10 L 686.00 183.70 L 684.90 184.80 L 676.20 184.90 L 676.10 193.60 L 675.00 194.70 L 673.40 194.70 L 672.30 193.60 L 672.20 192.80 L 672.20 184.90 L 663.60 184.80 L 662.50 183.70 L 662.50 182.10 L 662.90 181.50 L 664.30 180.90 L 672.20 180.90 L 672.30 172.20 L 673.40 171.10 L 674.20 171.00 L 675.00 171.10 L 676.10 172.20 L 676.20 180.90 L 684.10 180.90 L 685.50 181.50 Z M 64.60 332.50 L 63.40 333.50 L 42.80 339.70 L 42.10 339.80 L 40.70 339.10 L 40.20 337.70 L 40.40 336.90 L 41.60 335.90 L 62.30 329.60 L 63.10 329.60 L 64.40 330.30 L 64.80 331.80 L 64.60 332.50 Z M 193.10 332.00 L 193.20 333.50 L 192.30 334.70 L 186.30 337.80 L 185.60 338.10 L 184.10 337.70 L 183.40 336.30 L 183.50 335.50 L 184.50 334.30 L 191.10 330.90 L 192.60 331.30 L 193.10 332.00 Z M 31.40 339.20 L 32.90 339.30 L 33.90 340.40 L 33.90 341.20 L 33.20 342.60 L 24.90 345.50 L 24.20 345.60 L 22.80 345.00 L 22.30 343.60 L 22.90 342.20 L 31.40 339.20 Z M 187.90 317.90 L 189.40 317.40 L 190.80 318.00 L 194.50 322.30 L 194.80 323.00 L 194.80 324.50 L 193.60 325.50 L 192.10 325.40 L 191.40 324.90 L 187.40 320.00 L 187.40 318.50 L 187.90 317.90 Z M 159.60 268.50 L 157.80 267.10 L 155.80 266.30 L 153.50 266.00 L 151.30 266.30 L 149.30 267.10 L 147.50 268.50 L 145.80 270.90 L 145.20 272.60 L 145.00 274.50 L 145.30 276.70 L 146.10 278.70 L 147.50 280.50 L 149.30 281.90 L 151.30 282.70 L 153.60 283.00 L 155.80 282.70 L 157.80 281.90 L 159.60 280.50 L 161.00 278.70 L 161.80 276.70 L 162.10 274.50 L 161.30 270.90 L 159.60 268.50 Z M 162.40 265.60 L 163.60 266.90 L 165.00 269.20 L 165.80 271.70 L 166.10 274.50 L 165.90 277.00 L 165.20 279.30 L 164.00 281.40 L 162.40 283.40 L 160.40 285.00 L 158.30 286.10 L 156.10 286.80 L 153.50 287.00 L 151.10 286.80 L 148.80 286.10 L 146.70 285.00 L 144.70 283.40 L 143.10 281.40 L 141.90 279.30 L 141.20 277.00 L 141.00 274.50 L 141.30 271.70 L 142.10 269.20 L 144.70 265.60 L 146.70 264.00 L 148.80 262.90 L 151.10 262.20 L 153.50 262.00 L 156.10 262.20 L 158.30 262.90 L 160.40 264.00 L 162.40 265.60 Z M 78.20 325.80 L 79.40 324.80 L 102.00 319.10 L 125.30 313.80 L 149.50 308.80 L 174.40 304.30 L 200.20 300.30 L 226.90 296.70 L 254.40 293.50 L 282.80 290.80 L 283.60 290.90 L 284.80 291.90 L 284.90 293.40 L 283.90 294.60 L 283.20 294.90 L 254.80 297.50 L 227.40 300.60 L 200.80 304.20 L 175.10 308.30 L 150.30 312.80 L 126.20 317.70 L 103.00 323.00 L 80.50 328.70 L 79.70 328.70 L 78.40 328.00 L 78.00 326.50 L 78.20 325.80 Z M 80.50 290.50 L 81.10 290.00 L 82.70 290.00 L 87.00 294.10 L 87.60 295.60 L 87.00 297.00 L 86.40 297.40 L 84.80 297.40 L 80.50 293.30 L 79.90 291.90 L 80.50 290.50 Z M 86.10 279.40 L 85.50 280.80 L 82.00 284.10 L 80.50 284.20 L 79.40 283.10 L 79.30 281.60 L 79.80 280.90 L 83.20 277.60 L 84.80 277.60 L 85.90 278.60 L 86.10 279.40 Z M 72.40 289.10 L 73.10 289.20 L 74.20 290.30 L 74.30 291.80 L 69.40 296.70 L 67.90 296.70 L 67.30 296.30 L 66.80 295.60 L 66.80 294.10 L 71.00 289.70 L 72.40 289.10 Z M 68.20 276.10 L 69.60 276.70 L 72.90 280.30 L 72.90 281.80 L 71.80 282.90 L 70.30 282.90 L 69.60 282.50 L 66.30 278.80 L 66.30 277.30 L 67.40 276.20 L 68.20 276.10 Z M 115.90 207.00 L 116.50 206.60 L 118.10 206.60 L 119.20 207.70 L 119.30 218.80 L 130.40 219.00 L 131.50 220.10 L 131.50 221.60 L 131.00 222.30 L 129.60 222.80 L 119.30 222.80 L 119.30 233.20 L 118.70 234.60 L 117.30 235.20 L 115.90 234.60 L 115.30 233.20 L 115.30 222.90 L 105.00 222.90 L 103.50 222.30 L 103.10 221.60 L 103.10 220.10 L 104.20 219.00 L 115.30 218.90 L 115.30 208.50 L 115.90 207.00 Z M 172.30 170.20 L 171.80 169.50 L 171.80 168.00 L 172.90 166.90 L 181.60 166.80 L 181.70 158.10 L 182.80 157.00 L 184.30 157.00 L 185.40 158.10 L 185.60 158.90 L 185.60 166.80 L 194.20 166.90 L 195.30 168.00 L 195.30 169.50 L 194.90 170.20 L 193.50 170.80 L 185.60 170.80 L 185.40 179.40 L 184.30 180.50 L 183.50 180.60 L 182.80 180.50 L 181.70 179.40 L 181.60 170.80 L 173.70 170.80 L 172.30 170.20 Z M 666.30 72.10 L 665.40 71.30 L 665.00 70.20 L 665.00 69.10 L 665.50 68.00 L 680.10 46.40 L 680.90 45.60 L 682.00 45.20 L 683.20 45.20 L 684.30 45.60 L 685.10 46.40 L 685.50 47.50 L 685.50 48.70 L 685.10 49.80 L 670.40 71.30 L 669.60 72.20 L 668.50 72.60 L 667.40 72.60 L 666.30 72.10 Z M 660.00 77.30 L 661.20 77.20 L 662.30 77.70 L 663.10 78.50 L 663.60 79.60 L 663.60 80.80 L 659.90 86.60 L 659.10 87.50 L 658.00 87.90 L 656.80 87.90 L 655.80 87.50 L 654.90 86.60 L 654.50 85.60 L 654.40 84.40 L 658.10 78.50 L 658.90 77.70 L 660.00 77.30 Z M 465.20 36.50 L 465.60 37.60 L 465.60 38.80 L 460.50 60.30 L 460.00 61.30 L 459.10 62.10 L 458.00 62.50 L 456.80 62.50 L 455.80 62.00 L 455.00 61.10 L 454.60 60.00 L 454.60 58.90 L 459.70 37.40 L 460.20 36.30 L 461.10 35.50 L 462.20 35.10 L 463.30 35.10 L 464.40 35.60 L 465.20 36.50 Z M 479.40 73.10 L 499.30 60.00 L 500.40 59.50 L 501.50 59.50 L 502.60 60.00 L 503.40 60.80 L 503.90 61.90 L 503.90 63.10 L 503.40 64.10 L 502.60 65.00 L 482.70 78.10 L 481.60 78.50 L 480.50 78.50 L 479.40 78.00 L 478.60 77.20 L 478.10 76.10 L 478.10 75.00 L 478.60 73.90 L 479.40 73.10 Z M 490.70 37.20 L 491.90 37.30 L 492.90 37.80 L 493.70 38.70 L 494.00 39.80 L 493.90 41.00 L 493.40 42.00 L 474.00 67.00 L 473.10 67.70 L 472.00 68.10 L 470.80 68.00 L 469.80 67.50 L 469.00 66.60 L 468.60 65.50 L 468.70 64.30 L 469.30 63.30 L 488.70 38.30 L 489.60 37.50 L 490.70 37.20 Z M 216.20 57.70 L 216.90 56.80 L 218.00 56.30 L 219.10 56.20 L 220.20 56.60 L 221.10 57.40 L 221.70 58.40 L 222.20 61.40 L 221.80 62.50 L 221.00 63.40 L 220.00 63.90 L 218.80 64.00 L 217.70 63.60 L 216.80 62.80 L 216.30 61.80 L 215.80 58.80 L 216.20 57.70 Z M 241.00 20.80 L 236.20 19.70 L 231.30 19.10 L 226.00 19.00 L 220.50 19.30 L 214.70 20.20 L 208.50 21.60 L 202.50 23.40 L 197.00 25.60 L 192.00 28.10 L 187.50 30.80 L 183.40 33.80 L 179.70 37.20 L 176.60 40.80 L 174.30 44.20 L 172.90 47.50 L 172.10 50.60 L 172.00 53.70 L 172.40 56.70 L 173.50 59.60 L 175.20 62.10 L 177.40 64.40 L 180.30 66.50 L 184.00 68.30 L 188.50 69.90 L 193.30 70.90 L 198.40 71.50 L 203.70 71.60 L 209.20 71.30 L 215.00 70.40 L 221.20 69.00 L 236.20 63.70 L 248.60 68.10 L 246.10 59.10 L 246.10 57.40 L 247.00 56.00 L 249.90 53.50 L 253.10 49.80 L 255.30 46.40 L 256.80 43.10 L 257.60 40.00 L 257.80 37.00 L 257.40 33.90 L 256.20 31.10 L 254.50 28.50 L 252.30 26.20 L 249.40 24.10 L 245.70 22.30 L 241.00 20.80 Z M 242.60 15.00 L 247.70 16.60 L 252.00 18.60 L 255.40 20.80 L 258.20 23.30 L 260.40 26.00 L 262.00 29.00 L 263.20 32.40 L 263.80 35.80 L 263.90 39.20 L 263.40 42.70 L 262.20 46.20 L 260.30 49.90 L 257.70 53.70 L 252.40 59.30 L 255.90 72.20 L 256.00 73.20 L 255.00 75.20 L 253.00 76.00 L 252.00 75.80 L 236.20 70.00 L 222.80 74.80 L 216.00 76.30 L 209.60 77.30 L 203.60 77.60 L 197.80 77.50 L 192.20 76.80 L 186.90 75.70 L 181.80 74.00 L 177.70 72.00 L 174.30 69.80 L 171.50 67.30 L 169.40 64.60 L 167.70 61.60 L 166.60 58.30 L 165.90 54.80 L 165.80 51.40 L 166.30 47.90 L 167.50 44.40 L 169.30 40.80 L 171.90 36.90 L 175.40 33.00 L 179.50 29.30 L 184.00 25.90 L 188.90 22.90 L 194.30 20.20 L 200.30 17.80 L 206.90 15.80 L 213.70 14.20 L 220.10 13.30 L 226.20 12.90 L 231.90 13.10 L 237.40 13.80 L 242.60 15.00 Z M 218.80 28.40 L 220.80 29.70 L 222.40 31.30 L 223.50 33.20 L 224.30 35.30 L 224.70 37.60 L 224.60 39.80 L 224.10 42.00 L 223.00 44.20 L 220.70 47.10 L 218.90 48.30 L 219.70 51.50 L 219.80 52.60 L 219.40 53.80 L 218.70 54.60 L 217.60 55.20 L 216.40 55.20 L 215.30 54.80 L 214.50 54.10 L 213.90 53.00 L 212.30 46.50 L 212.40 45.80 L 213.30 44.40 L 216.10 43.10 L 217.90 41.10 L 218.70 38.30 L 218.00 35.60 L 217.10 34.50 L 215.80 33.60 L 213.10 32.80 L 211.70 33.00 L 209.30 34.40 L 208.30 35.50 L 207.90 36.80 L 207.70 38.20 L 208.30 42.20 L 207.80 43.30 L 207.00 44.10 L 205.90 44.60 L 204.70 44.60 L 203.70 44.10 L 202.80 43.30 L 201.70 39.00 L 201.70 36.80 L 202.20 34.70 L 203.10 32.60 L 204.50 30.70 L 206.10 29.10 L 208.00 28.00 L 210.20 27.20 L 212.40 26.80 L 214.60 26.90 L 216.70 27.40 L 218.80 28.40 Z" fill="#9ba8d5" fill-rule="evenodd" group-id="1" node-id="24" stroke="none" target-height="344.4" target-width="803.9" target-x="22.3" target-y="12.9"></path></g><path d="M 259.80 251.80 L 277.50 250.60 L 274.90 213.20 L 259.80 251.80 Z M 331.70 268.60 L 332.60 267.90 L 333.80 267.60 L 334.90 267.70 L 335.90 268.40 L 336.70 269.30 L 337.70 281.10 L 337.60 282.30 L 337.00 283.30 L 336.00 284.00 L 334.90 284.30 L 321.90 285.20 L 322.30 290.50 L 322.10 291.70 L 321.50 292.70 L 320.60 293.40 L 319.40 293.70 L 318.30 293.60 L 317.30 293.00 L 316.50 292.00 L 315.70 282.60 L 315.90 281.50 L 316.50 280.50 L 317.40 279.80 L 318.50 279.50 L 331.50 278.50 L 331.00 270.80 L 331.10 269.60 L 331.70 268.60 Z M 279.20 197.60 L 280.00 199.40 L 283.80 253.20 L 283.60 254.30 L 283.00 255.30 L 282.10 256.10 L 281.00 256.40 L 255.40 258.20 L 253.60 257.60 L 252.40 256.00 L 252.50 254.00 L 274.20 198.50 L 274.70 197.70 L 276.40 196.70 L 278.40 197.00 L 279.20 197.60 Z M 462.60 264.10 L 463.50 263.40 L 464.70 263.20 L 465.80 263.40 L 466.80 264.10 L 467.40 265.00 L 467.70 266.20 L 467.60 269.80 L 466.90 274.20 L 465.80 278.50 L 464.10 282.60 L 461.90 286.50 L 459.20 290.40 L 458.30 291.10 L 457.20 291.50 L 456.00 291.40 L 455.00 290.90 L 454.20 290.00 L 453.90 288.90 L 454.00 287.70 L 458.60 280.00 L 460.00 276.60 L 461.00 273.00 L 461.90 265.00 L 462.60 264.10 Z M 424.50 144.60 L 423.80 141.20 L 421.70 138.30 L 418.50 136.20 L 414.70 135.60 L 410.90 136.20 L 407.80 138.30 L 405.70 141.20 L 405.00 144.60 L 405.00 261.30 L 405.70 264.70 L 407.80 267.60 L 410.90 269.60 L 414.70 270.30 L 418.50 269.60 L 421.70 267.60 L 423.80 264.70 L 424.50 261.30 L 424.50 144.60 Z M 425.80 133.90 L 427.90 136.30 L 429.30 138.80 L 430.20 141.60 L 430.50 144.60 L 430.50 261.30 L 430.20 264.30 L 429.30 267.10 L 427.90 269.60 L 425.80 272.00 L 423.30 273.90 L 420.70 275.20 L 417.90 276.00 L 414.70 276.30 L 411.60 276.00 L 408.70 275.20 L 406.10 273.90 L 403.70 272.00 L 401.60 269.60 L 400.20 267.10 L 399.30 264.30 L 399.00 261.30 L 399.00 144.60 L 399.30 141.60 L 400.20 138.80 L 401.60 136.30 L 403.70 133.90 L 406.10 132.00 L 408.70 130.60 L 411.50 129.80 L 414.70 129.60 L 417.90 129.80 L 420.70 130.60 L 423.30 132.00 L 425.80 133.90 Z M 586.80 295.60 L 587.40 287.30 L 587.70 286.20 L 588.50 285.30 L 589.50 284.70 L 590.60 284.50 L 603.60 285.50 L 604.20 277.80 L 604.50 276.60 L 605.20 275.70 L 606.20 275.10 L 607.40 275.00 L 608.50 275.30 L 609.40 276.00 L 610.00 277.10 L 610.20 278.20 L 609.40 288.90 L 609.10 290.10 L 608.40 291.00 L 607.30 291.60 L 606.20 291.70 L 593.20 290.80 L 592.50 297.20 L 591.80 298.10 L 590.70 298.70 L 589.60 298.90 L 588.40 298.50 L 587.50 297.80 L 586.90 296.80 L 586.80 295.60 Z M 536.30 249.10 L 554.10 250.30 L 556.60 212.90 L 536.30 249.10 Z M 557.90 198.30 L 559.40 197.00 L 561.40 196.90 L 563.00 198.10 L 563.60 200.00 L 559.90 253.70 L 559.60 254.90 L 558.80 255.80 L 557.80 256.40 L 556.70 256.50 L 531.20 254.70 L 529.30 253.90 L 528.40 252.20 L 528.70 250.30 L 557.90 198.30 Z M 565.20 113.00 L 567.30 109.90 L 569.60 107.40 L 572.10 105.50 L 574.90 104.10 L 577.90 103.20 L 581.40 102.80 L 585.20 102.90 L 589.60 103.60 L 593.90 105.10 L 597.20 106.90 L 599.80 108.80 L 601.90 111.00 L 603.40 113.50 L 604.40 116.30 L 604.90 119.40 L 604.90 123.00 L 595.80 253.30 L 608.80 254.20 L 609.90 254.50 L 610.90 255.20 L 611.50 256.20 L 611.60 257.40 L 610.80 265.10 L 610.10 266.00 L 609.00 266.60 L 607.90 266.80 L 606.70 266.40 L 605.80 265.70 L 605.20 264.70 L 605.10 263.50 L 605.40 260.00 L 592.40 259.10 L 591.30 258.80 L 590.30 258.00 L 589.70 257.00 L 589.60 255.90 L 598.80 122.60 L 598.80 119.80 L 598.20 117.50 L 597.20 115.40 L 595.80 113.60 L 593.90 112.00 L 591.30 110.60 L 588.10 109.40 L 584.60 108.90 L 581.50 108.90 L 578.70 109.40 L 576.30 110.30 L 574.10 111.70 L 572.20 113.60 L 570.40 116.00 L 499.30 242.50 L 498.40 244.80 L 498.00 247.10 L 496.80 267.30 L 497.90 271.00 L 500.30 274.40 L 502.60 276.20 L 505.20 277.60 L 507.90 278.50 L 510.70 279.00 L 554.90 282.10 L 556.00 282.40 L 556.90 283.20 L 557.50 284.20 L 557.70 285.30 L 556.20 305.70 L 585.90 307.80 L 586.40 304.00 L 587.10 303.10 L 588.10 302.50 L 589.30 302.40 L 590.40 302.70 L 591.30 303.40 L 591.90 304.40 L 591.70 311.20 L 591.40 312.40 L 590.70 313.30 L 589.60 313.90 L 588.50 314.00 L 552.70 311.50 L 551.60 311.10 L 550.70 310.40 L 550.10 309.40 L 549.90 308.20 L 551.40 287.90 L 510.30 285.00 L 507.20 284.50 L 504.20 283.70 L 501.40 282.50 L 498.70 280.80 L 496.10 278.70 L 493.90 276.10 L 492.40 273.60 L 490.90 269.00 L 490.80 264.70 L 492.00 246.70 L 493.00 242.00 L 494.10 239.70 L 565.20 113.00 Z M 377.60 108.70 L 382.20 105.20 L 386.90 102.30 L 391.90 99.90 L 397.20 98.00 L 402.70 96.70 L 408.50 95.90 L 414.70 95.60 L 421.00 95.90 L 426.80 96.70 L 432.30 98.10 L 437.60 99.90 L 442.50 102.30 L 447.30 105.20 L 451.90 108.70 L 455.70 112.20 L 459.00 115.90 L 461.70 119.60 L 463.90 123.40 L 465.50 127.40 L 466.70 131.50 L 467.40 135.70 L 467.70 140.20 L 467.70 255.30 L 467.40 256.40 L 466.80 257.40 L 465.80 258.00 L 464.70 258.30 L 463.50 258.00 L 462.60 257.40 L 461.90 256.40 L 461.70 255.30 L 461.70 140.20 L 461.40 135.90 L 460.50 131.70 L 459.20 127.80 L 457.30 124.00 L 454.90 120.30 L 451.80 116.70 L 448.00 113.30 L 443.90 110.20 L 439.70 107.60 L 435.20 105.50 L 430.50 103.80 L 425.60 102.60 L 420.30 101.90 L 414.80 101.60 L 409.20 101.90 L 403.90 102.60 L 399.00 103.80 L 394.30 105.50 L 389.80 107.60 L 385.50 110.20 L 381.50 113.30 L 377.70 116.70 L 374.60 120.30 L 372.20 124.00 L 370.30 127.80 L 369.00 131.70 L 368.10 135.90 L 367.90 140.20 L 367.90 266.20 L 368.50 273.00 L 369.50 276.60 L 370.90 280.00 L 372.70 283.40 L 375.00 286.70 L 377.90 289.90 L 381.40 293.20 L 384.70 295.60 L 389.00 298.20 L 393.60 300.30 L 398.40 302.00 L 403.50 303.20 L 409.00 304.00 L 414.70 304.20 L 420.50 303.90 L 426.00 303.20 L 431.10 302.00 L 436.00 300.30 L 440.50 298.20 L 446.00 295.10 L 447.20 295.10 L 448.20 295.50 L 449.00 296.40 L 449.50 297.40 L 449.50 298.60 L 449.10 299.70 L 448.20 300.50 L 443.40 303.40 L 438.30 305.80 L 432.90 307.70 L 427.20 309.10 L 421.20 309.90 L 414.70 310.20 L 408.30 309.90 L 402.30 309.10 L 396.60 307.70 L 391.20 305.80 L 386.10 303.40 L 381.30 300.50 L 377.50 297.80 L 373.60 294.10 L 370.30 290.40 L 367.60 286.50 L 365.40 282.60 L 363.70 278.50 L 362.60 274.20 L 361.80 266.20 L 361.80 140.20 L 362.10 135.70 L 362.80 131.50 L 364.00 127.40 L 365.60 123.40 L 367.80 119.60 L 370.50 115.90 L 373.70 112.20 L 377.60 108.70 Z M 269.50 113.10 L 271.10 109.70 L 273.00 107.00 L 275.20 104.70 L 277.80 102.90 L 280.70 101.60 L 284.00 100.70 L 287.90 100.30 L 292.40 100.40 L 296.80 101.30 L 300.30 102.50 L 303.20 104.10 L 305.50 106.00 L 307.30 108.30 L 308.70 110.90 L 309.70 113.90 L 310.10 117.50 L 319.30 247.70 L 332.30 246.80 L 333.40 246.90 L 334.50 247.50 L 335.20 248.40 L 335.50 249.60 L 335.80 257.40 L 335.20 258.40 L 334.30 259.10 L 333.10 259.40 L 332.00 259.30 L 330.90 258.70 L 330.20 257.70 L 329.90 256.60 L 329.70 253.00 L 316.70 253.90 L 315.60 253.80 L 314.50 253.20 L 313.80 252.20 L 313.50 251.10 L 304.10 117.80 L 303.70 115.20 L 302.80 112.90 L 301.60 111.10 L 299.90 109.50 L 297.80 108.10 L 295.10 107.10 L 291.80 106.40 L 288.10 106.30 L 285.00 106.70 L 282.40 107.60 L 280.10 108.90 L 278.10 110.50 L 276.40 112.70 L 275.00 115.30 L 222.30 250.40 L 221.70 252.80 L 221.60 255.20 L 223.20 275.40 L 224.80 278.90 L 227.70 282.00 L 230.30 283.50 L 233.00 284.40 L 235.80 285.00 L 238.70 285.00 L 282.70 282.00 L 283.90 282.10 L 284.90 282.70 L 285.60 283.60 L 285.90 284.80 L 287.30 305.20 L 317.10 303.00 L 317.00 299.30 L 317.60 298.20 L 318.50 297.50 L 319.70 297.20 L 320.80 297.30 L 321.80 297.90 L 322.60 298.80 L 322.90 300.00 L 323.20 306.80 L 322.60 307.80 L 321.60 308.50 L 320.50 308.80 L 284.70 311.30 L 283.60 311.20 L 282.60 310.60 L 281.80 309.70 L 281.50 308.50 L 280.10 288.10 L 239.10 291.00 L 235.90 291.00 L 232.80 290.60 L 229.90 289.80 L 227.00 288.50 L 223.90 286.70 L 221.60 284.50 L 219.70 282.20 L 218.40 279.80 L 217.40 276.90 L 216.90 273.70 L 215.60 255.60 L 215.90 250.90 L 216.60 248.40 L 269.50 113.10 Z" fill="url(#SVGID_1_)" fill-rule="evenodd" group-id="2" node-id="29" stroke="none" target-height="218.4" target-width="395.99997" target-x="215.6" target-y="95.6"></path></svg>